<svg width="25" height="24" viewBox="0 0 25 24" fill="none" xmlns="http://www.w3.org/2000/svg">
<path d="M7.45898 13.1582C7.39258 14.0762 7.05273 14.7988 6.43945 15.3262C5.83008 15.8535 5.02539 16.1172 4.02539 16.1172C2.93164 16.1172 2.07031 15.75 1.44141 15.0156C0.816406 14.2773 0.503906 13.2656 0.503906 11.9805V11.459C0.503906 10.6387 0.648438 9.91602 0.9375 9.29102C1.22656 8.66602 1.63867 8.1875 2.17383 7.85547C2.71289 7.51953 3.33789 7.35156 4.04883 7.35156C5.0332 7.35156 5.82617 7.61523 6.42773 8.14258C7.0293 8.66992 7.37695 9.41016 7.4707 10.3633H5.71289C5.66992 9.8125 5.51562 9.41406 5.25 9.16797C4.98828 8.91797 4.58789 8.79297 4.04883 8.79297C3.46289 8.79297 3.02344 9.00391 2.73047 9.42578C2.44141 9.84375 2.29297 10.4941 2.28516 11.377V12.0215C2.28516 12.9434 2.42383 13.6172 2.70117 14.043C2.98242 14.4688 3.42383 14.6816 4.02539 14.6816C4.56836 14.6816 4.97266 14.5586 5.23828 14.3125C5.50781 14.0625 5.66211 13.6777 5.70117 13.1582H7.45898ZM13.6251 13.7617C13.6251 13.4297 13.5079 13.1758 13.2735 13C13.0392 12.8203 12.6173 12.6328 12.0079 12.4375C11.3985 12.2383 10.9161 12.043 10.5607 11.8516C9.59191 11.3281 9.10753 10.623 9.10753 9.73633C9.10753 9.27539 9.23644 8.86523 9.49425 8.50586C9.75597 8.14258 10.129 7.85938 10.6134 7.65625C11.1017 7.45312 11.6485 7.35156 12.254 7.35156C12.8634 7.35156 13.4064 7.46289 13.8829 7.68555C14.3595 7.9043 14.7286 8.21484 14.9903 8.61719C15.256 9.01953 15.3888 9.47656 15.3888 9.98828H13.631C13.631 9.59766 13.5079 9.29492 13.2618 9.08008C13.0157 8.86133 12.67 8.75195 12.2247 8.75195C11.795 8.75195 11.461 8.84375 11.2228 9.02734C10.9845 9.20703 10.8653 9.44531 10.8653 9.74219C10.8653 10.0195 11.004 10.252 11.2814 10.4395C11.5626 10.627 11.9747 10.8027 12.5177 10.9668C13.5177 11.2676 14.2462 11.6406 14.7032 12.0859C15.1603 12.5312 15.3888 13.0859 15.3888 13.75C15.3888 14.4883 15.1095 15.0684 14.5509 15.4902C13.9923 15.9082 13.2403 16.1172 12.295 16.1172C11.6388 16.1172 11.0411 15.998 10.5021 15.7598C9.963 15.5176 9.55089 15.1875 9.26573 14.7695C8.98448 14.3516 8.84386 13.8672 8.84386 13.3164H10.6075C10.6075 14.2578 11.17 14.7285 12.295 14.7285C12.713 14.7285 13.0392 14.6445 13.2735 14.4766C13.5079 14.3047 13.6251 14.0664 13.6251 13.7617ZM20.3244 13.8848L22.258 7.46875H24.2151L21.2444 16H19.4104L16.4514 7.46875H18.4026L20.3244 13.8848Z" fill="black" fill-opacity="0.6"/>
</svg>
