<svg width="34" height="24" viewBox="0 0 34 24" fill="none" xmlns="http://www.w3.org/2000/svg">
<path d="M4.20117 7.46875H5.95898V13.375C5.95898 13.918 5.83789 14.3984 5.5957 14.8164C5.35742 15.2305 5.01953 15.5508 4.58203 15.7773C4.14453 16.0039 3.65039 16.1172 3.09961 16.1172C2.19727 16.1172 1.49414 15.8887 0.990234 15.4316C0.486328 14.9707 0.234375 14.3203 0.234375 13.4805H2.00391C2.00391 13.8984 2.0918 14.207 2.26758 14.4062C2.44336 14.6055 2.7207 14.7051 3.09961 14.7051C3.43555 14.7051 3.70312 14.5898 3.90234 14.3594C4.10156 14.1289 4.20117 13.8008 4.20117 13.375V7.46875ZM12.4767 13.7617C12.4767 13.4297 12.3595 13.1758 12.1251 13C11.8907 12.8203 11.4689 12.6328 10.8595 12.4375C10.2501 12.2383 9.76769 12.043 9.41222 11.8516C8.44347 11.3281 7.95909 10.623 7.95909 9.73633C7.95909 9.27539 8.088 8.86523 8.34581 8.50586C8.60753 8.14258 8.98058 7.85938 9.46495 7.65625C9.95323 7.45312 10.5001 7.35156 11.1056 7.35156C11.715 7.35156 12.2579 7.46289 12.7345 7.68555C13.211 7.9043 13.5802 8.21484 13.8419 8.61719C14.1075 9.01953 14.2403 9.47656 14.2403 9.98828H12.4825C12.4825 9.59766 12.3595 9.29492 12.1134 9.08008C11.8673 8.86133 11.5216 8.75195 11.0763 8.75195C10.6466 8.75195 10.3126 8.84375 10.0743 9.02734C9.83605 9.20703 9.71691 9.44531 9.71691 9.74219C9.71691 10.0195 9.85558 10.252 10.1329 10.4395C10.4142 10.627 10.8263 10.8027 11.3692 10.9668C12.3692 11.2676 13.0978 11.6406 13.5548 12.0859C14.0118 12.5312 14.2403 13.0859 14.2403 13.75C14.2403 14.4883 13.961 15.0684 13.4025 15.4902C12.8439 15.9082 12.0919 16.1172 11.1466 16.1172C10.4903 16.1172 9.89269 15.998 9.35362 15.7598C8.81456 15.5176 8.40245 15.1875 8.1173 14.7695C7.83605 14.3516 7.69542 13.8672 7.69542 13.3164H9.45909C9.45909 14.2578 10.0216 14.7285 11.1466 14.7285C11.5646 14.7285 11.8907 14.6445 12.1251 14.4766C12.3595 14.3047 12.4767 14.0664 12.4767 13.7617ZM23.0315 11.9277C23.0315 12.7676 22.883 13.5039 22.5862 14.1367C22.2893 14.7695 21.8635 15.2578 21.3088 15.6016C20.758 15.9453 20.1252 16.1172 19.4104 16.1172C18.7033 16.1172 18.0725 15.9473 17.5178 15.6074C16.9631 15.2676 16.5334 14.7832 16.2287 14.1543C15.924 13.5215 15.7697 12.7949 15.7658 11.9746V11.5527C15.7658 10.7129 15.9162 9.97461 16.217 9.33789C16.5217 8.69727 16.9494 8.20703 17.5002 7.86719C18.0549 7.52344 18.6877 7.35156 19.3987 7.35156C20.1096 7.35156 20.7405 7.52344 21.2912 7.86719C21.8459 8.20703 22.2737 8.69727 22.5744 9.33789C22.8791 9.97461 23.0315 10.7109 23.0315 11.5469V11.9277ZM21.2502 11.541C21.2502 10.6465 21.0901 9.9668 20.7697 9.50195C20.4494 9.03711 19.9924 8.80469 19.3987 8.80469C18.8088 8.80469 18.3537 9.03516 18.0334 9.49609C17.7131 9.95312 17.551 10.625 17.5471 11.5117V11.9277C17.5471 12.7988 17.7072 13.4746 18.0276 13.9551C18.3479 14.4355 18.8088 14.6758 19.4104 14.6758C20.0002 14.6758 20.4533 14.4453 20.7697 13.9844C21.0862 13.5195 21.2463 12.8438 21.2502 11.957V11.541ZM31.8343 16H30.0765L26.6546 10.3867V16H24.8968V7.46875H26.6546L30.0824 13.0938V7.46875H31.8343V16Z" fill="black" fill-opacity="0.6"/>
</svg>
