<svg xmlns="http://www.w3.org/2000/svg" width="512" height="512" viewBox="0 0 309.627 309.627"><g xmlns="http://www.w3.org/2000/svg" fill="#fefeff"><path d="M157.603.042c-3.061 0-5.328.197-6.516.328-1.241-.149-3.664-.37-6.921-.37-10.323 0-29.948 2.309-45.402 17.799C84.395 32.191 77.14 54.346 77.187 83.632c.095 50.259 19.524 79.849 35.807 95.822 17.817 17.477 35.64 22.853 36.392 23.074a5.985 5.985 0 003.211.048c.8-.215 79.884-22.298 76.185-119.182C225.822 6.056 173.552.042 157.603.042zm-6.444 190.504c-10.072-3.634-61.894-26.284-62.044-106.938-.048-26.004 6.038-45.312 18.086-57.377 12.417-12.441 28.486-14.297 36.959-14.297 3.646 0 5.961.346 5.967.346a6.12 6.12 0 001.808.006c.018 0 2.19-.31 5.669-.31 16.994 0 56.775 7.005 59.245 71.865 3.078 80.707-54.843 103.208-65.69 106.705z" data-original="#010002"/><path d="M214.622 180.373a5.972 5.972 0 004.26 7.286c15.997 4.195 55.038 16.892 76.513 45.074v64.961H14.219v-64.961c21.206-27.812 59.71-40.569 75.493-44.805a5.972 5.972 0 004.219-7.309c-.853-3.18-4.105-5.09-7.309-4.219-21.481 5.764-60.85 20.037-83.196 50.856a5.944 5.944 0 00-1.134 3.503v72.903a5.969 5.969 0 005.967 5.967H301.37a5.969 5.969 0 005.967-5.967v-72.903a5.91 5.91 0 00-1.14-3.503c-23.468-32.376-66.763-46.548-84.288-51.142-3.181-.837-6.457 1.072-7.287 4.259z" data-original="#010002"/></g></svg>