<svg width="25" height="24" fill="none" xmlns="http://www.w3.org/2000/svg"><path d="M7.459 13.158c-.066.918-.406 1.64-1.02 2.168-.609.527-1.414.791-2.414.791-1.093 0-1.955-.367-2.584-1.101-.625-.739-.937-1.75-.937-3.036v-.521c0-.82.144-1.543.433-2.168.29-.625.702-1.104 1.237-1.436.539-.335 1.164-.503 1.875-.503.984 0 1.777.263 2.379.79.601.528.949 1.268 1.043 2.221H5.713c-.043-.55-.197-.949-.463-1.195-.262-.25-.662-.375-1.201-.375-.586 0-1.026.21-1.319.633-.289.418-.437 1.068-.445 1.951v.644c0 .922.139 1.596.416 2.022.281.426.723.639 1.324.639.543 0 .948-.123 1.213-.37.27-.25.424-.634.463-1.154H7.46zm6.166.604c0-.332-.117-.586-.351-.762-.235-.18-.657-.367-1.266-.563-.61-.199-1.092-.394-1.447-.585-.97-.524-1.453-1.229-1.453-2.116 0-.46.128-.87.386-1.23.262-.363.635-.647 1.12-.85a4.234 4.234 0 011.64-.304c.61 0 1.152.11 1.629.334.477.218.846.529 1.107.931.266.403.399.86.399 1.371H13.63c0-.39-.123-.693-.37-.908-.245-.219-.591-.328-1.036-.328-.43 0-.764.092-1.002.275a.852.852 0 00-.358.715c0 .277.139.51.416.697.282.188.694.364 1.237.528 1 .3 1.728.674 2.185 1.119.457.445.686 1 .686 1.664 0 .738-.28 1.318-.838 1.74-.559.418-1.31.627-2.256.627a4.392 4.392 0 01-1.793-.357c-.539-.242-.951-.572-1.236-.99-.282-.418-.422-.903-.422-1.454h1.764c0 .942.562 1.412 1.687 1.412.418 0 .744-.083.979-.251a.837.837 0 00.351-.715zm6.7.123l1.933-6.416h1.957L21.245 16H19.41l-2.959-8.531h1.952l1.921 6.416z" fill="#000" fill-opacity=".6"/></svg>