<svg width="24" height="24" fill="none" xmlns="http://www.w3.org/2000/svg"><path d="M15 23H3c-1.1 0-2-.9-2-2V9c0-1.1.9-2 2-2h12c1.1 0 2 .9 2 2v12c0 1.1-.9 2-2 2zM3 9v12h12V9H3z" fill="#000" fill-opacity=".6"/><path d="M8 15.286c0 .408.564.714 1.127.714.564 0 .987-.306.846-.714v-3.572c0-.408-.423-.714-.987-.714-.563 0-.986.306-.986.714v3.572zM14.7 2h-4v2h4V2zM20 4.8l2-.4C21.6 3 20.4 2 19 2h-1.3v2H19c.5 0 .9.3 1 .8zM8 5c0-.3.1-.6.4-.8L7.2 2.6C6.4 3.2 6 4.1 6 5v2.1h2V5zm12 10c0 .6-.4 1-1 1h-2v2h2c1.7 0 3-1.3 3-3v-.4h-2v.4zm2-7.4h-2v4h2v-4z" fill="#000" fill-opacity=".6"/><circle cx="9" cy="18" r="1" fill="#000" fill-opacity=".6"/></svg>