<svg width="24" height="24" fill="none" xmlns="http://www.w3.org/2000/svg"><path fill-rule="evenodd" clip-rule="evenodd" d="M16 2H4a2 2 0 00-2 2v16a2 2 0 002 2h16a2 2 0 002-2v-3h-2v3H4V4h12V2z" fill="#000" fill-opacity=".6"/><rect x="20" y="2" width="2" height="7" rx="1" fill="#000" fill-opacity=".6"/><rect x="20" y="11" width="2" height="2" rx="1" fill="#000" fill-opacity=".6"/><path fill-rule="evenodd" clip-rule="evenodd" d="M11 9H9a3 3 0 100 6h2v-2H9a1 1 0 110-2h2V9zm2 4h2a1 1 0 100-2h-2V9h2a3 3 0 110 6h-2v-2z" fill="#000" fill-opacity=".6"/><path fill="#000" fill-opacity=".6" d="M11 11h2v2h-2z"/></svg>