<svg width="34" height="24" fill="none" xmlns="http://www.w3.org/2000/svg"><path d="M4.201 7.469H5.96v5.906c0 .543-.121 1.023-.363 1.441a2.431 2.431 0 01-1.014.961 3.17 3.17 0 01-1.482.34c-.903 0-1.606-.228-2.11-.685C.486 14.97.234 14.32.234 13.48h1.77c0 .418.088.727.264.926.175.2.453.3.832.3.336 0 .603-.116.802-.347.2-.23.3-.558.3-.984V7.469zm8.276 6.293c0-.332-.117-.586-.352-.762-.234-.18-.656-.367-1.265-.563-.61-.199-1.092-.394-1.448-.585-.969-.524-1.453-1.229-1.453-2.116 0-.46.129-.87.387-1.23.262-.363.635-.647 1.119-.85a4.234 4.234 0 011.64-.304c.61 0 1.153.11 1.63.334.476.218.845.529 1.107.931.265.403.398.86.398 1.371h-1.758c0-.39-.122-.693-.369-.908-.246-.219-.591-.328-1.037-.328-.43 0-.763.092-1.002.275a.852.852 0 00-.357.715c0 .277.139.51.416.697.281.188.693.364 1.236.528 1 .3 1.729.674 2.186 1.119.457.445.685 1 .685 1.664 0 .738-.279 1.318-.838 1.74-.558.418-1.31.627-2.255.627a4.389 4.389 0 01-1.793-.357c-.54-.242-.952-.572-1.237-.99-.281-.418-.422-.903-.422-1.454H9.46c0 .942.563 1.412 1.688 1.412.418 0 .744-.083.978-.251a.837.837 0 00.352-.715zm10.555-1.834c0 .84-.149 1.576-.446 2.209a3.358 3.358 0 01-1.277 1.465c-.551.343-1.184.515-1.899.515-.707 0-1.337-.17-1.892-.51-.555-.34-.985-.824-1.29-1.453-.304-.633-.458-1.36-.462-2.18v-.421c0-.84.15-1.578.451-2.215.305-.64.732-1.131 1.283-1.47.555-.345 1.188-.516 1.899-.516.71 0 1.341.171 1.892.515.555.34.983.83 1.283 1.47.305.638.457 1.374.457 2.21v.38zm-1.782-.387c0-.895-.16-1.574-.48-2.039-.32-.465-.778-.697-1.371-.697-.59 0-1.045.23-1.366.691-.32.457-.482 1.129-.486 2.016v.416c0 .87.16 1.547.48 2.027.32.48.782.72 1.383.72.59 0 1.043-.23 1.36-.69.316-.465.476-1.141.48-2.028v-.416zM31.834 16h-1.758l-3.421-5.613V16h-1.758V7.469h1.758l3.427 5.625V7.469h1.752V16z" fill="#000" fill-opacity=".6"/></svg>